<?xml version="1.0" encoding="UTF-8"?>
<svg id="Lag_1" data-name="Lag 1" xmlns="http://www.w3.org/2000/svg" viewBox="0 0 377.12 313.36">
  <defs>
    <style>
      .cls-1 {
        fill: #000;
      }

      .cls-1, .cls-2 {
        stroke-width: 0px;
      }

      .cls-2 {
        fill: #fff;
      }
    </style>
  </defs>
  <path class="cls-2" d="M292.77,313.36c.03-.36.07-.71.07-1.07,0-103.65,0-207.31,0-310.96,0-.35,0-.71,0-1.12-.32-.04-.57-.08-.82-.1-.29-.02-.59,0-.88,0-96.5,0-193,0-289.49,0-.55,0-1.1.06-1.66.09C.03.13.06.01.1.01.36,0,.62,0,.88,0h292.09c0,104.16,0,208.32-.01,312.48,0,.29.23.67-.18.88Z"/>
  <path class="cls-1" d="M373.75,126.51c.32.55.75.94,1.38,1.11.4.11.53-.07.59-.48-.39-.25-.89-.5-.69-1.11.49.09.97.18,1.57.29-.15.34-.31.7-.47,1.06,0,0,.02-.02.02-.02-.07.3-.14.61-.21.95-.16.03-.36.07-.55.11.87.4.78,1.15.8,1.86.01.31.06.62.1,1.04.32-.19.5-.3.82-.49-.03.46-.05.84-.07,1.31-.27,0-.66.11-.79-.02-.39-.4-.78-.37-1.24-.24-.11.03-.24-.03-.52-.08.18-.31.31-.54.43-.77.34-.64.49.42.8.08.47-.56-.58-1.06-.08-1.63.03-.03-.05-.18-.11-.25-.08-.1-.19-.22-.3-.24-.82-.16-1.24-.73-1.55-1.44-.05-.11-.16-.19-.24-.28-.35.14-.66.27-.98.4.67,1.07.93,1.31,1.36,1.28-.01.28-.03.55-.04.93.4-.25.7-.44,1.01-.62.05.05.09.1.14.16-.19.22-.37.45-.53.64.19.35.37.68.56,1q-.59.12-1,1.01c.15.44.42.66.94.64.62-.02.89.26.92.82.02.44.07.87.11,1.37-.58.72-1.66.71-2.41,1.29-.12-.21-.44-.4-.15-.67.44-.42.08-.66-.15-1.03-.44.53-.82,1-1.21,1.47.04.07.07.14.11.2h1.43c-.08.2-.16.41-.25.65-1-.24-1.95-.48-3-.73-.16.31-.3.66-.5.98-.26.42-.42.4-.81-.09l-.03.03c.15-.11.42-.21.44-.35.2-1.06,1.11-.92,1.81-1.1.2-.05.42,0,.69,0-.02-.7-.35-.77-.81-.59-.18-.31-.33-.57-.49-.84-.12.06-.21.08-.22.12-.2,1-.58,1.33-1.9,1.5-.66.09-1.26.25-1.72.75-.12.14-.3.35-.26.48.3,1.06-.55,1.31-1.16,1.7-.39.25-.41.21-.42.75.69-.63,1.38-.59,2.05-.08l.03-.03c-.61.19-1.29.26-1.44,1.09-.03.18-.28.41-.47.47-.45.14-.58.47-.58.92q-.42-.35-.2-1.57c-.44.47-.74.81-1.06,1.13-.64.66-1.08.59-1.56-.23-.23-.38-.98-.66-1.54-.56q-.83.15-1.33-.65c-.48.58-.99,1.11-1.84,1.11-.41-.44-.69-1.09-1.51-1.14.02.21.03.38.05.57-.11.01-.22.06-.29.02-.41-.19-.9-.31-1.2-.61-.37-.38-.69-.38-1.13-.22-.92.32-.93.31-1.73-.39-.45-.17-1.1.7-1.38-.32-.68.51-1.34.62-2.02.16-.29-.2-.58-.16-.91-.14-.43.01-.87.3-1.32-.03-.1-.08-.55.09-.63.25-.27.58-.66.51-1.14.35-.3-.1-.62-.17-.93-.16-.78,0-1.56.03-2.34.1-.54.05-1.07.2-1.76.34-.36-.31-.94-.45-1.58-.3-.18.04-.39-.01-.57-.06-.59-.16-1.16-.39-1.76-.51-.54-.11-1.13.18-1.65-.21-.96.5-1.89-.12-2.82-.18-.81-.05-1.56-.19-2.33.14-.13.06-.35.04-.47-.03-.33-.23-.62-.47-1.06-.2-.07.04-.26-.12-.41-.18-.15-.05-.37-.18-.44-.12-.74.62-1.75-.03-2.51.55-.14.11-.52.04-.72-.07-.65-.36-1.3-.15-1.96-.06-.5.07-.99.22-1.49.25-.5.03-.85.11-.98.71-.1.45-.51.42-.96.08.11.67-.15,1.22.32,1.73.27.29.1.48-.72.89.33.4.64.78,1.01,1.23-.25.11-.41.19-.63.29.25.1.46.19.79.32-.56.45-.29.9-.15,1.35.12.37.24.75.32,1.13.08.35.11.68.46.92.16.11.18.4.3.59.14.23.28.49.49.64.2.14.35.21.34.51,0,.17.19.35.3.52.17.26.49.52.49.76-.02.48.18.81.43,1.16.42.61.57,1.24.14,1.94.67.65,1.61,1.14,1.32,2.33.51.14.82.39.78.97-.02.23.13.54.3.7.6.56.75,1.35,1.17,1.98.45.68.89,1.35,1.19,2.11.14.34.37.65.57.99.06-.01.18-.04.39-.08.07.72.4,1.25.98,1.7.37.29.57.83.8,1.28.54,1.06.98,2.17,1.98,2.92.1.07.19.2.21.32.11.82.79,1.31,1.14,2,.14.28.51.43.83.69-.39.52.24.58.66.91-.43.19-.74.32-1.06.46.15.57.6.13.88.26.08.16.14.44.26.47.57.14,1.01.31.82,1.05-.01.05.15.19.26.23.38.17.45.43.3.8-.15.38-.02.67.37.76.71.16.71.9.72,1.27.04,1.22.29,1.29,1.18,1.53.06.31.08.61.18.9.19.58.42,1.14.64,1.71.03.08.09.19.16.22.69.29.98.84,1.16,1.54.07.25.08.41.05.67-.05.36.08.91.34,1.11.37.29.62.59.83,1.01.34.69.79,1.3,1.04,2.06.27.82.81,1.55,1.22,2.32.09.17.16.36.18.54.07.74.05,1.52.81,1.97-.17.78,1.01.89.83,1.68,0,.02.04.06.06.07.94.33.86,1.08.83,1.86-.03.72.42,1.31.72,1.94.14.28.3.56.35.86.07.47.09.88.43,1.31.49.6.82,1.32,1.17,2.02.13.27.2.63.15.93-.07.5-.15.95.25,1.36.12.12.11.37.17.55.2.65.24,1.35.88,1.81.44.32.37.79,0,1.19.18.37.89.28.7,1-.08.33.39.78.54,1.19.24.65.47,1.3.81,1.93.23.43.51.83.74,1.25.24.45.23,1.03.34,1.65.08.01.33.05.57.09.03.05.06.1.1.15-.31.15-.63.3-.94.45.02.14.05.28.07.42.3.23.6.46.92.71-.38.84-.06,1.65.56,2.2.53.47.55,1.08.55,1.55,0,.63.33,1.16.32,1.78,0,.19.37.43.62.56.39.21.58.59.38.89-.37.55.25.89.16,1.35.75.44.56,1.26.56,1.86,0,.66.22,1.2.44,1.74.2.52.17.93-.11,1.38.6.44.59,1.12.64,1.74.04.47.14.86.46,1.22.15.17.29.36.28.71-.03.85.14,1.71.25,2.56.02.17.15.33.21.5.08.23.14.46.21.69.04.15.03.36.13.44.59.49.52,1.09.37,1.74-.05.21-.01.44,0,.67.02.84.37,1.68-.07,2.5.5.87-.23,1.72-.04,2.62.18.82-.3,1.59-.53,2.37-.03.11-.15.27-.11.32.53.71-.07,1.28-.23,1.89-.23.89-.59,1.74-1.06,2.54-.11.19.04.53-.05.75-.43,1.06-.69,2.18-1.47,3.1-.52.61-.89,1.33-1.03,2.21-.1.62-.73,1.2-1.23,1.69-.32.32-.7.54-.86,1.01-.09.26-.33.48-.55.67-.99.85-1.63,2-2.42,3-.76.96-1.59,1.77-2.52,2.52-.23.18-.41.42-.65.59-.36.26-.74.49-1.13.71-.28.16-.62.22-.88.4-1.07.73-2.19,1.41-3.16,2.26-.81.71-1.52,1.64-1.54,2.8-.04,1.96.04,3.92.02,5.88-.01,1.23.11,2.49-.38,3.68-.07.17-.13.39-.09.57.38,1.62.15,3.26.16,4.89,0,2.28-.09,4.57-.17,6.85-.02.48-.02,1.03-.24,1.43-.31.58-.1,1.1-.09,1.66.03,1.4-.04,2.79-.07,4.19-.01.45-.07.9-.04,1.34.03.43-.02.75-.43.99-.53.31-1.04.67-1.55,1.01-1.11-.8-2.18-1.55-3.22-2.34-.2-.15-.32-.47-.4-.73-.07-.24-.03-.52-.03-.78.04-2.19.1-4.37.13-6.56,0-.78-.1-1.56-.1-2.35,0-.68.1-1.37.08-2.05-.04-1.2-.12-2.41-.2-3.61-.02-.29-.13-.58-.12-.87.03-2.19.1-4.38.12-6.57,0-.94-.09-1.88-.11-2.82-.01-.65.03-1.3.05-1.95,0-.13.06-.26.03-.37-.59-1.88-.71-3.92-1.86-5.62-.12-.18-.19-.43-.19-.65-.02-.73-.47-1.11-1.09-1.18-.87-.1-1.25-.64-1.66-1.31-.77-1.24-1.73-2.36-2.49-3.61-.48-.8-1.35-1.41-1.37-2.47,0-.11-.12-.24-.22-.31-1.18-.74-1.2-1.88-1.08-3.13-.63-.47-1.12-1.09-1.37-1.89-.04-.14-.17-.27-.29-.38-.09-.09-.28-.12-.3-.21-.21-.77-.39-1.55-.57-2.33-.08-.34-.11-.7-.18-1.04-.11-.5-.24-1-.36-1.5-.03-.12-.03-.3-.12-.36-.42-.31-.32-.66-.27-1.12.05-.4-.22-.86-.42-1.26-.08-.16-.36-.22-.6-.36.03-1.03-.57-1.9-1.07-2.8-.31-.56-.67-1.05-.75-1.76-.1-.91-.44-1.79-.72-2.67-.05-.15-.34-.23-.58-.38.15-.28.3-.56.45-.84-.37-1.35-1.39-2.47-1.46-3.95-.01-.23-.24-.45-.34-.69-.17-.38-.39-.76-.45-1.16-.11-.73-.15-1.45-.62-2.08-.27-.36-.32-.77-.25-1.27.06-.42-.23-.95-.48-1.34-.45-.69-.6-1.46-.72-2.24-.11-.74-.36-1.41-.65-2.1-.29-.67-.26-1.48-.32-2.23-.02-.28.08-.58.12-.89-.22-.09-.55-.13-.57-.25-.18-.75-.73-1.39-.66-2.23.03-.39-.08-.8-.18-1.19-.15-.57-.35-1.13-.53-1.69-.16-.52-.37-.99-.27-1.61.07-.43-.06-1.08-.91-1.09.6-.6.44-1.17.06-1.67-.32-.43-.53-.81-.17-1.32.08-.11.11-.41.04-.46-.6-.42-.52-1.16-.82-1.72-.42-.78-.86-1.63-.56-2.41-.22-.55-.39-.94-.53-1.35-.18-.55-.37-1.1-.5-1.66-.18-.72-.27-1.47-.47-2.19-.31-1.1-.83-2.15-.98-3.26-.11-.81-.44-1.46-.74-2.17-.31-.73-.44-1.55-.61-2.34-.03-.16.13-.35.17-.46-.19-.42-.4-.78-.51-1.17-.33-1.15-.62-2.3-.92-3.46-.12-.47-.2-.94-.31-1.41-.05-.21-.07-.48-.22-.62-.66-.62-.73-1.41-.8-2.23-.03-.34-.13-.69-.24-1.02-.22-.68-.48-1.35-.69-2.03-.39-1.3-.79-2.6-1.14-3.92-.35-1.31-.54-2.67-.99-3.93-.24-.68-.33-1.42-.78-2.06-.31-.45-.33-1.1-.47-1.67-.05-.19-.02-.44-.13-.56-.85-.88-1.1-2.08-1.65-3.12-.16-.31-.45-.55-.63-.85-.29-.47-.56-.95-.81-1.44-.29-.56-.56-1.08-1.05-1.56-.62-.62-.92-1.55-1.38-2.33-.14-.24-.29-.5-.51-.66-.56-.41-1.04-.85-1.31-1.54-.16-.39-.56-.69-.85-1.03-.39-.44-.79-.87-1.13-1.24-.58.05-1.02.09-1.47.13-.13.01-.31,0-.37.08-.54.66-1.34,1.08-1.48,2.1-.17,1.29-.77,2.47-1.31,3.65-.34.73-.7,1.4-.73,2.28-.03.78-.34,1.56-.85,2.26-.67.92-1.16,1.93-1.3,3.11-.09.7-.32,1.39-.56,2.06-.09.25-.4.41-.59.64-.23.27-.52.53-.63.85-.27.77-.5,1.55-.65,2.35-.17.94-.49,1.81-.92,2.66-.51.98-.86,2.05-1.34,3.04-.7,1.43-1.36,2.9-2.25,4.21-.41.6-.65,1.2-.9,1.85-.2.51-.53.97-.77,1.46-.55,1.11-1.08,2.23-1.61,3.35-.28.61-.55,1.23-.8,1.86-.67,1.69-1.71,3.22-2.14,5.02-.14.56-.43,1.09-.65,1.64-.09.24-.18.48-.24.73-.09.35-.11.72-.23,1.05-.28.74-.35,1.5-.46,2.28-.26,1.83-.12,3.65-.09,5.48.02,1.47.25,2.95.13,4.4-.13,1.47-.15,2.93-.09,4.4.04.98.17,1.96.2,2.93.03,1.08-.01,2.15,0,3.23,0,.46.06.91.07,1.37.01.55.18,1.2-.04,1.64-.33.66-.2,1.24-.13,1.89.14,1.29.42,2.59,0,3.89-.05.17.05.38.06.57.04.42.16.85.11,1.26-.14,1.21,0,2.4.14,3.6.07.6-.04,1.23-.07,1.85-.06,1.21-.15,2.41-.19,3.62-.02.71.05,1.43.06,2.15.02,1.76.04,3.52.04,5.27,0,1.57-.04,3.13-.07,4.7-.04,1.96-.07,3.92-.15,5.88-.06,1.47-.19,2.93-.29,4.39-.02.36,0,.72-.02,1.07-.04.61-.1,1.23-.15,1.84-.01.16-.04.32-.03.48.18,2.08.2,4.16.02,6.25-.04.42-.04.85-.02,1.27.05,1.27.17,2.55.16,3.82,0,.87-.18,1.74-.29,2.72-1.64-.34-3.22-.67-4.93-1.02.11-1.67.21-3.33.33-4.98.01-.16.12-.33.08-.47-.48-1.7-.28-3.44-.28-5.16,0-.85-.07-1.7-.07-2.55.01-2.84.01-5.67.38-8.5.14-1.12.06-2.27.1-3.41.01-.29.07-.59.16-.86.11-.33.04-.6-.02-.93-.13-.76-.11-1.54-.15-2.32-.02-.45-.05-.9-.08-1.35-.07-.85-.19-1.69-.2-2.54,0-2.87.02-5.75.04-8.62,0-.62.06-1.24.06-1.86,0-.94-.01-1.89-.03-2.83-.02-1.11-.08-2.22-.09-3.33-.04-2.38-.08-4.76-.08-7.14,0-2.05.05-4.11.07-6.16,0-.26.04-.53-.03-.77-.36-1.15-.25-2.33-.29-3.5-.04-1.24-.04-2.48-.2-3.7-.12-.94-.51-1.85-.68-2.79-.17-.94-.21-1.9-.3-2.85-.06-.58-.11-1.17-.17-1.75-.06,0-.13-.01-.19-.02-.13.3-.25.59-.41.96-.29-.24-.53-.44-.77-.64-.6.31-.54.83-.48,1.3.09.65,0,1.17-.71,1.35-.07.75-.18,1.46-.19,2.16,0,.25.23.51.41.88-.32.24-.67.5-1.07.8.05.21.11.45.18.75-.36.31-.95.54-.52,1.28-.43.03-.71.06-1.04.08-.03.04-.09.11-.15.18-.73.94-1.13,2-1.16,3.2,0,.37-.16.6-.55.7-.21.05-.41.2-.64.33.04.49.2,1.01-.23,1.41-.04.03-.02.18-.03.18-.8-.01-.74.83-1.25,1.29-.14-.32-.24-.56-.37-.87-.09.19-.14.41-.27.53-.16.14-.39.21-.63.32.08.21.15.37.27.67-.84.13-1.63.25-2.51.38-.18-.38-.35-.75-.55-1.2-.18.25-.32.44-.48.65.15.21.3.41.48.66-.18.11-.29.24-.43.27-.76.17-.88-.48-1.25-1.02.35-.2.66-.37,1.01-.57-.22-.18-.43-.36-.75-.64.28-.29.52-.55.78-.82-.04-.05-.23-.21-.23-.36,0-.25.09-.52.2-.75.09-.19.26-.34.4-.5-.12-.11-.21-.18-.32-.27.17-.07.32-.12.51-.2-.12-.15-.22-.29-.38-.49h.9c.06-.54-.09-1.11.4-1.58.15-.14.05-.54.06-.82.03-.61.59-1.09.42-1.75-.01-.05.04-.12.08-.17.85-1.19.78-1.18.74-2.51-.02-.51.28-1.06.53-1.53.3-.57.68-1.11,1.09-1.6.25-.29.35-.55.21-.88-.23-.51-.02-.85.35-1.19.37-.33.41-1.05,1.13-.83.15-.92.63-1.49,1.32-2.01-.46-.59.06-1.03.27-1.61.26.09.51.19.78.29.02-.12.06-.19.03-.23-.1-.16-.21-.33-.34-.47-.44-.49-.72-1.03-.76-1.71-.04-.65-.16-1.29-.25-1.93-.01-.1-.02-.21-.07-.28-.53-.71-.57-1.52-.67-2.37-.09-.78-.26-1.54-.02-2.32.04-.14.06-.38-.03-.46-.51-.51-.25-.85.3-1.16-.23-.15-.39-.25-.55-.35.08-.27.25-.54.22-.8-.13-1.32.17-2.62.07-3.95-.06-.74.26-1.51.36-2.27.15-1.07.67-1.98,1.18-2.9.23-.42.1-1.03.67-1.27-.17-.79.41-1.45.3-2.26.38-.14.71-.25,1.06-.38,0-.28-.19-.59.21-.83.2-.12.36-.48.35-.72-.03-.63.25-1.1.55-1.62.41-.68,1.06-1.23,1.15-2.13.03-.29.42-.54.69-.87-.04-.19-.08-.44-.13-.67.17-.21.46-.4.46-.59,0-.64.41-1.05.8-1.39.7-.6.8-1.44.88-2.21.05-.4.2-.66.32-1,.31-.83.69-1.72.02-2.64.78-.43,1.1-1.1,1.33-1.88.19-.65.47-1.29.83-1.86.23-.36-.2-.7.16-1.07.47-.47.77-1.11,1.13-1.68.3-.46.6-.92.58-1.51-.02-.46.14-.83.55-1.08.03-.02.06-.03.08-.06.26-.58.51-1.17.79-1.75.26-.54.57-.99.57-1.7,0-.85-.23-1.6-.36-2.4-.15-.92-.74-1.49-1.41-1.89-.86-.5-1.83-.82-2.79-1.14-.51-.17-1.08-.18-1.63-.27-.23-.04-.46-.05-.67-.14-.44-.17-.86-.47-1.31-.54-.46-.07-.95.07-1.42.15-.28.05-.56.12-.83.22-.67.25-1.35.48-1.98.8-.65.33-1.13.08-1.6-.31-.13-.1-.25-.21-.42-.36-.63.6-1.38.54-2.17.42-.83-.13-1.68-.18-2.52-.2-.69-.01-1.23.35-1.36,1.04-.18.92-.27,1.86-.34,2.8-.14,1.82-.24,3.65-.36,5.47-.02.26-.03.52-.04.78-.02,1.04-.04,2.07-.04,3.11,0,.39-.01.78.06,1.15.23,1.22.16,2.41-.32,3.56-.06.15-.13.3-.23.43-.44.58-1.01,1.01-1.76.82-.66-.18-1.09-.72-1.24-1.4-.1-.48-.12-.97-.13-1.46,0-.69.06-1.37.03-2.06-.03-.88-.13-1.75-.18-2.63-.04-.72-.11-1.44-.07-2.15.07-1.2.24-2.39.33-3.59.03-.41-.06-.84-.13-1.25-.17-.96-.35-1.92-.56-2.87-.13-.6-.3-1.2-.48-1.79-.04-.14-.19-.28-.32-.36-.94-.62-1.9-1.15-3.08-.58-.58.28-1.18.53-1.77.79-.49.21-.77.58-.86,1.11-.35,2-.68,4-.43,6.04.03.26-.01.52,0,.78,0,.81.02,1.63.02,2.44,0,.36.02.72-.02,1.08-.16,1.26-.24,2.53-.35,3.79-.12,1.34-.26,2.72-.98,3.95-.22.38-.25.87-.32,1.32-.14.94-.31,1.88-.33,2.82-.01.77.19,1.55.28,2.32.14,1.34-.02,2.66-.27,3.97-.08.43-.36.84-.63,1.2-.4.53-.99.6-1.6.45-.6-.15-.97-.56-1.04-1.17-.07-.65-.1-1.3-.13-1.95-.09-1.86-.21-3.72-.26-5.59-.04-1.64.03-3.27.55-4.85.05-.15.09-.32.1-.48.13-1.95.27-3.9.37-5.85.04-.78,0-1.57,0-2.35.07-2.68-.41-5.32-.64-7.98-.09-.97-.58-1.56-1.44-1.91-.15-.06-.32-.1-.45-.2-.93-.7-1.97-.67-3.1-.69-1.5-.02-2.33.93-3.21,1.76-1.26,1.2-2.56,1.41-4.1.76-.95-.4-1.54.04-1.53,1.09,0,.55-.16,1.09-.2,1.64-.05.52-.11,1.05-.05,1.56.21,2.1,0,4.17-.22,6.25-.2,1.79-.32,3.59-.43,5.38-.13,2.32-.26,4.63-.3,6.95-.03,1.8.06,3.6.11,5.39.04,1.34-.06,2.68-.29,4-.07.42-.11.85-.11,1.27,0,3.33.01,6.67.04,10,0,.88.12,1.77.12,2.65,0,1.57-.1,3.13-.11,4.7,0,1.2-.04,2.42.13,3.61.28,1.91.02,3.79-.08,5.68-.12,2.19-.23,4.37-.35,6.56-.09,1.73-.15,3.46-.3,5.18-.16,1.82-.42,3.63-.6,5.45-.09.94-.09,1.89-.16,2.84-.12,1.66-.26,3.33-.38,4.99-.03.45,0,.91.02,1.37.03,1.08.05,2.16.12,3.23.1,1.66.26,3.32.35,4.98.04.75-.06,1.5-.08,2.25-.03,1.01-.02,2.03-.08,3.04-.04.85-.1,1.7-.26,2.53-.08.42-.33.87-.63,1.19-.87.94-2.33.72-2.83-.46-.24-.55-.27-1.2-.33-1.81-.11-1.04-.23-2.07-.26-3.11-.02-.85.1-1.69.12-2.54.01-.41-.06-.82-.11-1.23-.15-1.29-.53-2.57-.33-3.9.05-.32.07-.66,0-.98-.49-2.42-.61-4.85-.31-7.3.14-1.13.14-2.28.24-3.42.12-1.46.27-2.92.38-4.39.11-1.43.12-2.86.27-4.29.16-1.51.15-2.99-.06-4.49-.09-.63,0-1.29.02-1.93.04-1.53.11-3.06.1-4.59-.02-2.09-.1-4.17-.16-6.26-.02-.82-.11-1.63-.1-2.45.02-2.35.07-4.71.11-7.06.02-1.63-.07-3.27.08-4.89.2-2.12,0-4.24.17-6.35.05-.68.19-1.36.21-2.05.03-1.17,0-2.35-.01-3.52,0-.91,0-1.83,0-2.74,0-1.3-.06-2.61-.02-3.91.05-1.76.18-3.52.25-5.28.04-.88,0-1.76.02-2.64.03-.91.11-1.82.17-2.74.03-.45.12-.93.04-1.36-.32-1.75-.32-3.51-.35-5.28-.02-.85-.08-1.7-.19-2.54-.04-.33-.18-.74-.41-.95-1.06-.93-2.2-1.7-3.7-1.8-1.12-.08-1.99-.74-2.44-1.75-.34-.78-.87-1.2-1.63-1.42-.83-.24-1.6-.56-2.25-1.14-.18-.16-.47-.21-.71-.32-.61-.3-1.22-.61-1.83-.9-.32-.15-.65-.31-.99-.4-.5-.13-.76-.41-.91-.91-.33-1.06-.77-2.04-1.67-2.8-.59-.5-.97-1.18-.98-2.05-.01-.57-.33-1.12-.44-1.69-.25-1.31-.5-2.62-.68-3.94-.09-.7-.02-1.42-.04-2.13,0-.16-.01-.35-.1-.47-.5-.74-.23-1.43.11-2.12.08-.17.16-.35.27-.51.37-.53.37-1.03-.2-1.49.38-.23,1.07-.16.76-.91-.17,0-.35.02-.57.03-.02-.17.01-.36-.06-.48-.49-.8-.31-1.44.33-2.09.36-.36,0-.72-.27-1.03.17-.3.33-.61.52-.94h.62c.2-.31.35-.6.55-.85.21-.27.3-.51.32-.9.04-.9.63-1.6,1.37-2.1.34-.23.75-.37,1.19-.58-.04-.18-.09-.39-.14-.59.36-.57.86-.85,1.54-.89.42-.02.86-.11.96-.66.02-.11.15-.3.22-.29.62.07,1.05-.54,1.69-.44.26.04.7-.12.82-.33.36-.6.84-.82,1.52-.85.58-.03.65-.16,1.49-1.18.18.09.37.23.57.28.21.05.51.11.64,0,.32-.26.61-.44,1.06-.36.14.03.32-.38.52-.43.48-.1.99-.11,1.48-.15.13-.01.29.04.37-.02.63-.47,1.31-.48,2.06-.43.4.03.83-.3,1.36-.52.1.17.21.37.31.55.41-.27.73-.49,1.08-.73.42.35.82.32,1.34.16.79-.25,1.68-.15,2.38-.71.06-.05.19-.04.28-.03.06,0,.11.07.17.09.78.26,1.62.19,2.43.38.76.18,1.61-.05,2.42-.1.5-.03,1-.05,1.56.11.1-.12.19-.24.3-.36.5-.51.58-.45,1.27-.2.73.27,1.5.45,2.27.63,1.45.33,2.8-.18,4.2-.16.06,0,.12.04.26.08.02.24.05.5.09.91,2.18-1.11,4.21-.34,6.35.18.02-.03.11-.12.18-.22.06-.08.1-.16.17-.26.1.05.22.06.26.13.42.77,1.12.64,1.79.57.21-.02.46-.15.63-.08.58.23,1.14.46,1.8.3.17-.04.39.2.6.27.36.12.72.28,1.09.3.47.04,1.02-.35,1.38.27.45-.25.74.06,1.1.26.47.26.5-.37.76-.53.56.53,1.02,1.06,1.95.9.48-.08,1.04.33,1.6.53.11-.17.23-.35.34-.52.1,0,.19-.03.23,0,1.21.99,2.16,1.59,3.97,1.91.12.02.3.07.37,0,.64-.54,1.11.03,1.58.27.45.23.82.6,1.24.9.13.09.34.26.42.21.71-.36,1.22.24,1.83.35.06.01.13.03.19.03.41-.01.86-.14,1.22-.02.36.12.67.32,1.09.33.65.02,1.07.41,1.16.99.66.22,1.33.31,1.8.66.33.26.67.34,1.01.5.46.22.98.3,1.32.78.14.2.51.28.79.31.59.07,1.13.17,1.64.51.14.09.43-.05.73-.1.32.16.62.69,1.19.38.23.59.81.47,1.25.53.46.06.94-.08,1.46-.14.19-.64.51-1.25.54-1.88.05-.93-.02-1.89-.17-2.82-.21-1.27-.44-2.56-1.1-3.71-.26-.45-.29-.92-.07-1.41.15-.32.28-.67.33-1.02.07-.42.07-.8-.46-1.04-.61-.28-.83-.83-.79-1.54.09-1.67.06-3.42-.76-4.88-1.01-1.8-1.4-3.85-2.43-5.62-.09-.16-.1-.37-.13-.57-.12-.8-.1-1.66-.39-2.39-.37-.96-.79-1.89-1.02-2.9-.08-.37-.45-.73-.76-1-.46-.4-.55-.86-.44-1.41.06-.29.16-.57.19-.86.04-.39.1-.8-.32-1.05-.05-.03-.1-.09-.14-.14-1.06-1.37-1.38-2.89-.94-4.57.18-.7,0-1.02-.72-1.42-.91-.5-.99-.75-.47-1.67.46-.83.43-1.63-.11-2.39-.63-.87-1.3-1.71-1.94-2.58-.21-.29-.42-.59-.56-.91-.22-.51-.36-1.04-.56-1.56-.29-.74-.26-1.42.35-1.98.61-.54.63-1.18.39-1.87-.19-.55-.41-1.1-.61-1.65-.38-1.08-.43-2.18-.13-3.27.16-.59.26-1.15-.08-1.7-.35-.57-.26-1.13-.02-1.69.31-.72.62-1.43.52-2.26-.03-.27.08-.59.21-.85.56-1.17.73-2.51,1.64-3.51.63-.71.7-1.67,1.09-2.48.17-.35.31-.72.48-1.07.2-.43.44-.77.85-1.1.52-.41.83-1.15,1.07-1.81.14-.39.33-.67.6-.96.28-.3.49-.67.73-1.02,1.35-.15,1.49-.49.68-1.6-.09-.12-.24-.18-.53-.4.91-.32,1.63-.5,2.51-.23.05-.31.1-.61.15-.96.57-.13,1.16-.27,1.75-.41.12-.03.29-.07.34-.16.28-.44.69-.46,1.16-.49.89-.05,1.77-.17,2.65-.27.19-.02.36-.15.55-.15.15,0,.31.1.55.19.13-.1.08-.48.55-.48.54,0,1.07-.37,1.62-.02.41-.42,1.03.03,1.49-.37.17-.14.65-.07.89.07.39.23.7.19,1.1.07.58-.17,1.18-.28,1.77.09.17.11.45.14.66.1.84-.18,1.61.07,2.38.33.21.07.44.19.65.16.53-.06.95.06,1.29.5.11.15.32.31.49.31.93-.03,1.53.62,2.21,1.08.23.16.43.38.67.51.91.47,1.33,1.5,2.32,1.9.51.21.92.69,1.35,1.06.25.21.45.47.7.67.37.28.66.55.72,1.09.04.37.41.7.61,1.06.13.22.3.45.34.69.13.73.21,1.44.56,2.13.29.56.19,1.26.28,1.89.14.93-.07,1.92.48,2.83.2.33.27.93.09,1.49-.26.8-.14,1.66.05,2.5.17.77.61,1.54.2,2.36-.01.03-.02.07,0,.1.34.6.03,1.24.1,1.85.06.5-.04,1.01.37,1.47.19.22.23.73.12,1.04-.32.87-.21,1.69-.02,2.56.1.46-.1.99,0,1.45.26,1.1.29,2.19.28,3.31-.01,1.53.14,3.06.21,4.58.02.42-.01.84-.03,1.26-.01.43-.03.88.38,1.15.36.24.26.56.24.88-.04.86-.09,1.73-.12,2.59,0,.12.04.28.13.36.7.71.83,1.44.05,2.21.24.36.65.66.3,1.12-.03.04,0,.15.03.18.71.73.35,1.61.29,2.42-.05.7.06,1.29.47,1.64.03.56-.09,1.05.09,1.35.59.96.73,2.02.9,3.07.09.6.18,1.16.89,1.45-.58.54-.72,1.03-.34,1.69.54.93.5.96-.26,1.72.22.33.37.78.68.97.39.24.39.67.63.9.6.59.41,1.02-.13,1.5.39.66.69,1.32.64,2.12-.01.23.19.64.35.91.41.7.47,1.36.03,2.08.27.15.49.28.79.45-.24.2-.44.37-.68.56.64.76.75,1.61.77,2.52,0,.69.11,1.39.66,1.92.08.08.09.31.05.45-.17.57,0,1.07.24,1.58.21.45.75.88.26,1.46.29.64.57,1.28.86,1.91.06.14.27.25.27.37.02.83.01,1.66.01,2.53.27.07.51.14.76.2v.68c.07.06.11.13.16.14.89.12,1.37.84,1.94,1.39.48.46.95.6,1.59.45.51-.12,1.08-.17,1.59-.09.29.05.52.43.83.71.35-.32.71-.65,1.06-.97.92.75,1.2.72,2.4.6.68-.07,1.5.02,2.06.36.63.39,1.04.43,1.4.06.59.06,1.04.18,1.47.13,1.09-.14,1.49-.13,2.65.37.03-.07.07-.26.17-.37.33-.35.66-.31,1.02.01.32.3.71.53,1.07.79.78-1.22.92-.83,1.67-.16.23-.26.5-.34.89-.32.49.03,1-.17,1.5-.28.67-.14,1.12.19,1.52.79,1.06-.05,2.15-.13,3.25-.14.37,0,.75.2,1.12.31.25.08.61.3.72.21.71-.57,1.4.07,2.1-.01.36-.04.86-.06,1.04.51.04.13.44.16.74.26v-.85c.48-.06.95-.11,1.45-.17-.06.32-.1.53-.16.85.35.02.63.03.91.04.16,0,.41-.08.47,0,.62.73,1.62.12,2.3.66.13.1.44-.02.66-.05.75-.1,1.48.04,2.22.15.84.12,1.69.23,2.53.37.14.02.3-.09.5-.15.35.55.78.75,1.48.56.6-.16,1.27-.03,2.06-.03-.21.34-.36.58-.51.81-.16.24-.23.55.06.67.15.06.47-.12.62-.28.13-.15.13-.42.2-.71.18.15.31.29.46.38.97.57,1.07.54,1.56-.55.44,0,1.11-.19,1.33.04.54.57,1.48-.03,1.92.73.58-.12,1.22-.26,1.93-.41.04.32.08.61.14,1.08.67-.59,1.34-.78,2.07-.55.24.08.45.25.7.32.7.2,1.16.9,2.06.71-.13.52-.61.78-.27,1.18-.26.23-.52.45-.82.72.41.29.57.02.72-.15.25-.27.56-.43.86-.21.33.24.69.56.19,1.1.5.06.92.3.79-.46-.04-.23.15-.5.24-.75.08,0,.16,0,.24,0,.27.61.54,1.21.87,1.93-.3,0-.45.02-.59,0-.12-.02-.23-.09-.37-.15-.26.39-.3.75-.08,1.12l-.03-.02ZM370.88,124.9c.15.51-.71,1.11.2,1.49.61-.52.11-1.55.93-1.99-.34.15-.69.31-1.13.5ZM372.02,125.74q.47,1.14,1.04.97c-.13-.22-.33-.42-.37-.65-.07-.4-.25-.47-.67-.32ZM365.68,135.72c-.49-.02-.99-.05-1.62-.08.61.64,1.13.41,1.62.08ZM244.88,220.44c.34,0,.55,0,.77,0,0-.14.05-.36-.02-.42-.25-.2-.47-.11-.75.41ZM361.75,136.85c.02.09.03.19.04.19.4-.03.79-.08,1.19-.12,0-.05-.01-.09-.02-.14-.4.02-.8.04-1.21.07ZM244.93,218.02q.13.54.61.39c-.21-.13-.37-.24-.61-.39ZM363.6,138.59c-.02.05-.04.1-.06.15.15.07.31.15.46.22.02-.08.07-.24.06-.24-.15-.05-.31-.09-.46-.13ZM359.45,139.7c.45-.35.54-.56.04-.92-.02.34-.03.55-.04.92ZM367.27,135.06c-.02.09-.05.18-.07.26l.53.07c.01-.07.02-.14.03-.21-.16-.04-.33-.09-.49-.13ZM250.85,181.06c-.11.13-.23.2-.22.25.03.1.11.19.18.28.07-.06.2-.12.19-.17,0-.1-.08-.2-.16-.36ZM247.74,218.34c.01.08.03.16.04.24.16-.05.32-.1.48-.14-.01-.05-.02-.09-.03-.14-.16.01-.32.02-.49.04ZM358.22,139.3c-.03-.08-.06-.19-.08-.18-.09.01-.17.05-.26.08.03.07.06.15.09.22.08-.04.16-.08.24-.11ZM361.93,137.51c-.08.05-.15.11-.22.16.06.06.12.16.16.15.07-.02.13-.1.18-.17,0,0-.07-.08-.13-.14ZM368.89,121.93c.08-.18.16-.27.16-.36,0-.06-.14-.18-.18-.16-.1.03-.18.13-.27.2.07.08.15.17.29.33ZM375.03,134.24c0-.06,0-.13-.03-.17-.03-.04-.11-.04-.17-.07,0,.08,0,.16.03.24,0,.01.11,0,.17,0ZM374.11,133.36c-.02.08-.06.15-.06.23,0,.02.13.07.14.06.05-.06.07-.14.11-.21-.05-.02-.1-.04-.18-.07ZM371.62,127.03l-.06-.16c-.12.04-.25.09-.37.13.01.03.02.07.03.1.13-.03.26-.05.39-.08Z"/>
</svg>